<?xml version="1.0" standalone="no"?>
<!DOCTYPE svg PUBLIC "-//W3C//DTD SVG 20010904//EN"
 "http://www.w3.org/TR/2001/REC-SVG-20010904/DTD/svg10.dtd">
<svg version="1.0" xmlns="http://www.w3.org/2000/svg"
 width="512.000000pt" height="512.000000pt" viewBox="0 0 512.000000 512.000000"
 preserveAspectRatio="xMidYMid meet">
<metadata>
Created by potrace 1.14, written by Peter Selinger 2001-2017
</metadata>
<g transform="translate(0.000000,512.000000) scale(0.100000,-0.100000)"
fill="#000000" stroke="none">
<path d="M3343 5000 c-32 -15 -72 -43 -89 -61 -36 -38 -74 -105 -74 -130 0
-24 -9 -28 -38 -19 -79 22 -135 -68 -78 -124 13 -13 49 -32 80 -42 48 -15 72
-33 159 -118 57 -56 136 -132 175 -170 82 -78 80 -54 23 -234 l-36 -112 -79
51 c-231 148 -505 246 -776 277 -86 9 -348 9 -434 -1 -335 -40 -684 -190 -949
-409 -51 -41 -192 -181 -232 -229 -199 -239 -352 -555 -400 -829 -2 -14 -10
-56 -17 -95 -13 -77 -17 -407 -5 -495 64 -465 299 -894 647 -1178 25 -20 51
-43 58 -50 28 -26 210 -140 288 -180 126 -65 336 -139 444 -158 14 -3 48 -9
75 -14 104 -19 134 -22 275 -25 128 -2 189 2 321 19 64 9 182 37 274 66 693
218 1192 831 1272 1560 16 142 6 385 -22 532 -46 242 -145 482 -281 683 l-67
100 24 45 c87 160 104 190 109 190 3 0 34 -28 70 -62 36 -33 104 -98 152 -143
l87 -82 -40 -133 c-23 -77 -38 -143 -35 -156 8 -31 169 -192 200 -200 40 -10
69 16 119 108 179 331 158 301 240 344 40 20 77 40 82 44 6 4 44 25 85 47 136
73 145 79 158 107 8 15 11 37 8 49 -3 12 -45 64 -95 115 -102 106 -72 102
-265 44 l-119 -35 -143 149 c-79 82 -142 153 -140 158 1 5 9 13 17 18 8 5 158
89 334 187 335 187 346 195 332 253 -7 28 -196 219 -230 232 -24 9 -50 2 -332
-84 -38 -11 -77 -23 -85 -25 -8 -2 -105 -31 -215 -66 -110 -34 -211 -63 -225
-66 -21 -3 -42 14 -140 118 -63 68 -133 142 -155 165 -89 94 -202 117 -312 64z"/>
<path d="M2169 4896 c-2 -3 -29 -7 -59 -10 -30 -3 -65 -8 -77 -10 -11 -3 -43
-8 -69 -12 -78 -11 -110 -58 -82 -118 16 -37 59 -49 128 -35 19 4 60 10 90 14
101 12 130 23 145 57 17 41 3 80 -33 99 -38 19 -39 19 -43 15z"/>
<path d="M2502 4894 c-27 -12 -40 -57 -28 -94 14 -43 45 -55 171 -66 50 -4 99
-8 110 -9 48 -5 89 43 79 94 -7 35 -36 55 -94 65 -55 9 -224 16 -238 10z"/>
<path d="M1550 4748 c-78 -26 -202 -90 -214 -109 -5 -9 -6 -32 -2 -51 5 -27
14 -40 38 -51 32 -16 52 -13 126 19 17 8 49 21 70 30 71 31 85 39 99 61 22 34
10 86 -25 103 -15 8 -29 15 -32 16 -3 1 -30 -7 -60 -18z"/>
<path d="M959 4420 c-110 -82 -119 -93 -119 -136 0 -37 38 -74 75 -74 25 0
219 140 235 170 16 31 12 59 -15 85 -40 41 -71 33 -176 -45z"/>
<path d="M614 4100 c-11 -4 -27 -19 -36 -32 -9 -12 -24 -32 -35 -43 -54 -57
-103 -134 -103 -162 0 -65 83 -101 129 -55 35 35 141 171 152 195 28 62 -41
124 -107 97z"/>
<path d="M276 3601 c-21 -24 -77 -137 -102 -208 -18 -52 -18 -53 2 -80 48 -64
109 -49 146 35 11 26 32 72 45 102 43 95 45 106 16 140 -30 36 -80 41 -107 11z"/>
<path d="M4605 3134 c-23 -25 -26 -34 -20 -79 3 -27 12 -74 19 -103 17 -62 16
-58 16 -76 0 -8 12 -28 26 -45 48 -58 128 -30 128 45 0 62 -42 237 -62 256 -9
10 -31 20 -49 24 -27 5 -36 2 -58 -22z"/>
<path d="M114 3082 c-36 -5 -54 -35 -70 -118 -34 -177 -31 -225 14 -248 23
-12 32 -12 59 -1 36 15 49 35 57 90 6 40 15 93 22 130 16 82 15 90 -5 116 -22
28 -43 37 -77 31z"/>
<path d="M4703 2575 c-43 -18 -49 -44 -54 -220 -3 -101 6 -128 49 -143 37 -13
87 8 97 39 18 56 22 266 7 296 -17 31 -62 44 -99 28z"/>
<path d="M38 2475 c-35 -20 -39 -35 -33 -135 11 -171 21 -203 71 -213 53 -10
92 21 95 75 2 22 -10 183 -15 210 -6 36 -19 56 -42 66 -32 15 -43 15 -76 -3z"/>
<path d="M4617 1978 c-22 -20 -77 -169 -93 -251 -5 -30 13 -65 43 -81 35 -18
82 -2 100 35 30 62 74 230 68 259 -11 52 -79 74 -118 38z"/>
<path d="M110 1883 c-25 -32 -23 -45 24 -183 39 -114 60 -140 111 -140 48 0
78 40 70 91 -9 53 -72 220 -92 241 -26 29 -87 24 -113 -9z"/>
<path d="M4405 1436 c-27 -18 -145 -218 -145 -244 0 -34 11 -52 39 -66 48 -23
81 -8 123 57 40 62 55 87 64 107 4 8 13 22 20 30 25 30 21 83 -8 110 -25 23
-65 26 -93 6z"/>
<path d="M373 1370 c-26 -10 -43 -39 -43 -72 0 -23 98 -182 140 -225 28 -31
74 -30 105 2 41 40 37 56 -51 192 -70 108 -96 125 -151 103z"/>
<path d="M4066 968 c-11 -6 -58 -49 -105 -95 -75 -75 -85 -89 -85 -120 0 -67
73 -95 130 -51 32 25 132 123 152 150 52 67 -20 158 -92 116z"/>
<path d="M717 900 c-64 -50 -32 -107 134 -243 66 -54 124 -48 148 15 9 25 -7
74 -29 88 -4 3 -43 37 -85 75 -103 93 -123 101 -168 65z"/>
<path d="M3622 599 c-48 -18 -208 -119 -220 -140 -28 -44 10 -110 65 -111 40
-1 242 117 254 149 14 36 11 49 -13 78 -26 29 -53 37 -86 24z"/>
<path d="M1195 560 c-53 -21 -66 -79 -27 -119 32 -35 214 -131 246 -131 39 0
76 37 76 75 0 45 -20 62 -151 130 -115 59 -113 58 -144 45z"/>
<path d="M3099 356 c-2 -2 -51 -17 -109 -31 -58 -15 -113 -35 -122 -44 -46
-43 -13 -131 49 -131 14 0 73 14 132 31 114 32 151 58 151 105 0 32 -42 74
-73 74 -13 0 -26 -2 -28 -4z"/>
<path d="M1740 332 c-8 -2 -25 -13 -37 -24 -24 -22 -25 -80 -1 -104 20 -19
248 -74 288 -69 63 8 91 78 50 125 -13 15 -37 26 -67 31 -27 4 -86 16 -133 27
-47 10 -92 17 -100 14z"/>
<path d="M2311 239 c-30 -12 -54 -55 -47 -84 3 -13 16 -34 29 -46 21 -19 31
-20 156 -17 133 4 133 4 158 32 19 23 24 36 19 60 -11 58 -33 66 -171 64 -68
-1 -133 -5 -144 -9z"/>
</g>
</svg>
